<svg width="212" height="31" viewBox="0 0 212 31" fill="none" xmlns="http://www.w3.org/2000/svg">
<path d="M15.8572 0.00131156C18.3427 0.00131156 20.7088 0.56397 22.8305 1.56994C23.1637 1.71814 23.4983 1.8952 23.8303 2.07357L22.3751 3.34579L20.1936 1.12663L16.4335 4.38323L14.2201 2.04341L7.30662 8.1133L11.7333 12.8808L10.0046 14.3603L14.3728 19.1278L12.6441 20.6072L18.8898 27.388L22.5875 24.071L25.802 27.6254C25.1646 28.0988 24.4676 28.5736 23.7108 28.9881C21.3206 30.3096 18.6268 31.0024 15.8878 31C7.12472 31 9.77862e-05 24.0422 9.77862e-05 15.4869C-0.0304401 6.98798 7.09551 0 15.8572 0M12.9455 14.5373L16.7362 11.2217L20.1325 14.9216L16.3418 18.2385L12.9455 14.5373ZM15.6448 20.9325L19.4049 17.588L22.8305 21.2879L19.0398 24.6048L15.6448 20.9325ZM10.2502 8.23396L14.0396 4.91703L17.4346 8.61825L13.6452 11.9339L10.2502 8.23396ZM17.1916 6.4568L20.0117 3.97009L22.5596 6.72305L19.7395 9.23993L17.1916 6.4568ZM22.2264 17.8556L25.0451 15.3688L27.5917 18.1507L24.7716 20.64L22.2264 17.8556ZM24.7119 23.452L27.532 20.9639L30.0773 23.7182L27.2585 26.2338L24.7119 23.452ZM25.8644 10.6603L27.7431 9.00254L29.4413 10.8387L27.5612 12.4965L25.8644 10.6603ZM23.4386 5.18328L25.3187 3.49661L27.0182 5.36165L25.1354 7.01946L23.4386 5.18328ZM28.2583 16.1387L30.1383 14.4809L31.867 16.3171L29.9578 17.9749L28.2583 16.1387ZM19.8006 12.0231L22.6207 9.53634L25.1673 12.2893L22.3472 14.7773L19.8006 12.0231Z" fill="#0D0D0E"/>
<path d="M40.8279 8.10758H46.0483L49.6392 16.7519H49.8203L53.4112 8.10758H58.6316V23.3693H54.5277V14.5461H54.407L50.967 23.2501H48.4926L45.0525 14.4865H44.9318V23.3693H40.8279V8.10758Z" fill="#0D0D0E"/>
<path d="M59.9858 8.10758H64.663L67.6806 14.3077H67.8013L70.8189 8.10758H75.4961L69.8231 18.5702V23.3693H65.6588V18.5702L59.9858 8.10758Z" fill="#0D0D0E"/>
<path d="M89.4241 12.8769C89.3839 12.3801 89.1953 11.9926 88.8583 11.7144C88.5264 11.4362 88.0209 11.297 87.342 11.297C86.9095 11.297 86.5549 11.3492 86.2783 11.4535C86.0067 11.5529 85.8055 11.6895 85.6748 11.8634C85.544 12.0373 85.4761 12.236 85.4711 12.4596C85.461 12.6434 85.4937 12.8098 85.5692 12.9589C85.6496 13.1029 85.7754 13.2346 85.9464 13.3538C86.1173 13.4681 86.3361 13.5724 86.6027 13.6668C86.8692 13.7612 87.1861 13.8456 87.5532 13.9202L88.8206 14.1884C89.6756 14.3673 90.4073 14.6033 91.0159 14.8964C91.6244 15.1895 92.1223 15.5348 92.5096 15.9322C92.8968 16.3247 93.181 16.7668 93.3621 17.2587C93.5481 17.7505 93.6437 18.2871 93.6487 18.8683C93.6437 19.8719 93.3897 20.7214 92.8868 21.4169C92.3839 22.1124 91.6647 22.6415 90.7292 23.0042C89.7988 23.3669 88.6798 23.5482 87.3722 23.5482C86.0293 23.5482 84.8575 23.352 83.8567 22.9595C82.8609 22.567 82.0864 21.9634 81.5331 21.1486C80.985 20.3289 80.7083 19.2807 80.7033 18.0039H84.6865C84.7117 18.4709 84.8298 18.8633 85.0411 19.1813C85.2523 19.4993 85.549 19.7402 85.9313 19.9042C86.3185 20.0681 86.7787 20.1501 87.3118 20.1501C87.7594 20.1501 88.1341 20.0954 88.4359 19.9861C88.7376 19.8768 88.9665 19.7253 89.1224 19.5315C89.2783 19.3378 89.3587 19.1167 89.3638 18.8683C89.3587 18.6348 89.2808 18.4311 89.1299 18.2572C88.984 18.0784 88.7426 17.9194 88.4057 17.7803C88.0687 17.6362 87.6136 17.5021 87.0402 17.3779L85.5013 17.05C84.1333 16.7569 83.0545 16.2676 82.2649 15.582C81.4803 14.8914 81.0906 13.95 81.0956 12.7576C81.0906 11.7889 81.3521 10.9418 81.8802 10.2165C82.4133 9.4862 83.1501 8.91736 84.0905 8.50999C85.0361 8.10261 86.1199 7.89892 87.342 7.89892C88.5893 7.89892 89.668 8.10509 90.5783 8.51744C91.4886 8.92978 92.1902 9.51104 92.6831 10.2612C93.181 11.0064 93.4325 11.8783 93.4375 12.8769H89.4241Z" fill="#0D0D0E"/>
<path d="M94.8218 11.4461V8.10758H108.25V11.4461H103.603V23.3693H99.4689V11.4461H94.8218Z" fill="#0D0D0E"/>
<path d="M111.892 23.3693H107.365L112.465 8.10758H118.199L123.298 23.3693H118.772L115.392 12.3105H115.272L111.892 23.3693ZM111.047 17.3481H119.557V20.4481H111.047V17.3481Z" fill="#0D0D0E"/>
<path d="M122.414 11.4461V8.10758H135.842V11.4461H131.195V23.3693H127.061V11.4461H122.414Z" fill="#0D0D0E"/>
<path d="M137.421 23.3693V8.10758H148.555V11.4461H141.615V14.0692H147.982V17.4077H141.615V20.0308H148.525V23.3693H137.421Z" fill="#0D0D0E"/>
<path d="M150.636 8.10758H155.856L159.447 16.7519H159.628L163.219 8.10758H168.439V23.3693H164.335V14.5461H164.215L160.775 23.2501H158.3L154.86 14.4865H154.74V23.3693H150.636V8.10758Z" fill="#0D0D0E"/>
<path d="M170.427 23.3693V8.10758H181.562V11.4461H174.622V14.0692H180.989V17.4077H174.622V20.0308H181.532V23.3693H170.427Z" fill="#0D0D0E"/>
<path d="M197.01 8.10758V23.3693H193.51L187.927 15.351H187.837V23.3693H183.642V8.10758H187.203L192.695 16.0962H192.816V8.10758H197.01Z" fill="#0D0D0E"/>
<path d="M198.572 11.4461V8.10758H212V11.4461H207.353V23.3693H203.219V11.4461H198.572Z" fill="#0D0D0E"/>
</svg>
