<svg width="24" height="24" viewBox="0 0 24 24" fill="none" xmlns="http://www.w3.org/2000/svg">
<path fill-rule="evenodd" clip-rule="evenodd" d="M11.1509 9.70401C11.3194 9.36259 11.6671 9.14642 12.0478 9.14642C12.4285 9.14642 12.7761 9.36259 12.9446 9.70401L13.4058 10.639C13.5514 10.9342 13.833 11.1389 14.1588 11.1862L15.1905 11.3362C15.5671 11.391 15.88 11.6547 15.9977 12.0167C16.1153 12.3786 16.0174 12.7759 15.7449 13.0417L14.998 13.7702C14.7624 13.9999 14.655 14.3308 14.7106 14.6551L14.8869 15.6824C14.9512 16.0576 14.797 16.4367 14.4891 16.6605C14.1812 16.8842 13.773 16.9138 13.436 16.7367L12.513 16.2516C12.2218 16.0985 11.8738 16.0985 11.5826 16.2516L10.6596 16.7367C10.3227 16.9138 9.91442 16.8842 9.60651 16.6605C9.2986 16.4367 9.14441 16.0576 9.20875 15.6824L9.3849 14.655C9.44054 14.3307 9.33308 13.9998 9.09754 13.7701L8.3506 13.0415C8.07817 12.7758 7.98019 12.3785 8.09784 12.0165C8.2155 11.6546 8.52839 11.3908 8.905 11.3361L9.93675 11.1861C10.2625 11.1387 10.5441 10.9341 10.6898 10.6389L11.1509 9.70401Z" stroke="white" stroke-width="1.5" stroke-linecap="round" stroke-linejoin="round"/>
<path fill-rule="evenodd" clip-rule="evenodd" d="M3 17V11.1C3 9.73298 3.6214 8.44008 4.68886 7.5861L9.18886 3.9861C10.8323 2.6713 13.1677 2.6713 14.8111 3.9861L19.3111 7.5861C20.3786 8.44008 21 9.73298 21 11.1V17C21 19.2091 19.2091 21 17 21H7C4.79086 21 3 19.2091 3 17Z" stroke="white" stroke-width="1.5" stroke-linecap="round" stroke-linejoin="round"/>
</svg>
