<svg width="24" height="24" viewBox="0 0 24 24" fill="none" xmlns="http://www.w3.org/2000/svg">
<path fill-rule="evenodd" clip-rule="evenodd" d="M11.1505 9.70401C11.3189 9.36259 11.6666 9.14642 12.0473 9.14642C12.428 9.14642 12.7756 9.36259 12.9441 9.70401L13.4053 10.639C13.5509 10.9342 13.8325 11.1389 14.1583 11.1862L15.19 11.3362C15.5666 11.391 15.8795 11.6547 15.9972 12.0167C16.1148 12.3786 16.0169 12.7759 15.7444 13.0417L14.9975 13.7702C14.762 13.9999 14.6545 14.3308 14.7101 14.6551L14.8864 15.6824C14.9507 16.0576 14.7965 16.4367 14.4886 16.6605C14.1807 16.8842 13.7725 16.9138 13.4355 16.7367L12.5125 16.2516C12.2213 16.0985 11.8734 16.0985 11.5821 16.2516L10.6591 16.7367C10.3222 16.9138 9.91393 16.8842 9.60602 16.6605C9.29811 16.4367 9.14392 16.0576 9.20827 15.6824L9.38442 14.655C9.44005 14.3307 9.33259 13.9998 9.09706 13.7701L8.35012 13.0415C8.07768 12.7758 7.9797 12.3785 8.09736 12.0165C8.21501 11.6546 8.5279 11.3908 8.90452 11.3361L9.93627 11.1861C10.262 11.1387 10.5436 10.9341 10.6893 10.6389L11.1505 9.70401Z" stroke="#AE7EED" stroke-width="1.5" stroke-linecap="round" stroke-linejoin="round"/>
<path fill-rule="evenodd" clip-rule="evenodd" d="M3 17V11.1C3 9.73298 3.6214 8.44008 4.68886 7.5861L9.18886 3.9861C10.8323 2.6713 13.1677 2.6713 14.8111 3.9861L19.3111 7.5861C20.3786 8.44008 21 9.73298 21 11.1V17C21 19.2091 19.2091 21 17 21H7C4.79086 21 3 19.2091 3 17Z" stroke="#AE7EED" stroke-width="1.5" stroke-linecap="round" stroke-linejoin="round"/>
</svg>
