<svg width="24" height="24" viewBox="0 0 24 24" fill="none" xmlns="http://www.w3.org/2000/svg">
<path fill-rule="evenodd" clip-rule="evenodd" d="M11.1507 9.70401C11.3191 9.36259 11.6668 9.14642 12.0475 9.14642C12.4282 9.14642 12.7759 9.36259 12.9443 9.70401L13.4055 10.639C13.5512 10.9342 13.8328 11.1389 14.1585 11.1862L15.1903 11.3362C15.5669 11.391 15.8798 11.6547 15.9974 12.0167C16.1151 12.3786 16.0171 12.7759 15.7447 13.0417L14.9977 13.7702C14.7622 13.9999 14.6547 14.3308 14.7104 14.6551L14.8866 15.6824C14.951 16.0576 14.7968 16.4367 14.4889 16.6605C14.1809 16.8842 13.7727 16.9138 13.4358 16.7367L12.5128 16.2516C12.2215 16.0985 11.8736 16.0985 11.5823 16.2516L10.6593 16.7367C10.3224 16.9138 9.91418 16.8842 9.60627 16.6605C9.29836 16.4367 9.14416 16.0576 9.20851 15.6824L9.38466 14.655C9.44029 14.3307 9.33284 13.9998 9.0973 13.7701L8.35036 13.0415C8.07793 12.7758 7.97995 12.3785 8.0976 12.0165C8.21525 11.6546 8.52815 11.3908 8.90476 11.3361L9.93651 11.1861C10.2623 11.1387 10.5439 10.9341 10.6895 10.6389L11.1507 9.70401Z" stroke="#19191C" stroke-width="1.5" stroke-linecap="round" stroke-linejoin="round"/>
<path fill-rule="evenodd" clip-rule="evenodd" d="M3 17V11.1C3 9.73298 3.6214 8.44008 4.68886 7.5861L9.18886 3.9861C10.8323 2.6713 13.1677 2.6713 14.8111 3.9861L19.3111 7.5861C20.3786 8.44008 21 9.73298 21 11.1V17C21 19.2091 19.2091 21 17 21H7C4.79086 21 3 19.2091 3 17Z" stroke="#19191C" stroke-width="1.5" stroke-linecap="round" stroke-linejoin="round"/>
</svg>
