<svg width="48" height="48" viewBox="0 0 48 48" fill="none" xmlns="http://www.w3.org/2000/svg">
<path fill-rule="evenodd" clip-rule="evenodd" d="M39 22H42C43.1046 22 44 22.8954 44 24V30C44 31.1046 43.1046 32 42 32H39C36.2386 32 34 29.7614 34 27V27C34 24.2386 36.2386 22 39 22Z" stroke="#6816D6" stroke-width="3.5" stroke-linecap="round" stroke-linejoin="round"/>
<path d="M36 6H10" stroke="#6816D6" stroke-width="3.5" stroke-linecap="round" stroke-linejoin="round"/>
<path d="M42 32V37C42 39.7614 39.7614 42 37 42H11C8.23858 42 6 39.7614 6 37V17C6 14.2386 8.23858 12 11 12H37C39.7614 12 42 14.2386 42 17V22" stroke="#6816D6" stroke-width="3.5" stroke-linecap="round" stroke-linejoin="round"/>
</svg>
