<svg width="70" height="70" viewBox="0 0 70 70" fill="none" xmlns="http://www.w3.org/2000/svg">
<circle cx="35" cy="35" r="35" fill="#E3D1FA"/>
<path fill-rule="evenodd" clip-rule="evenodd" d="M50 33H53C54.1046 33 55 33.8954 55 35V41C55 42.1046 54.1046 43 53 43H50C47.2386 43 45 40.7614 45 38V38C45 35.2386 47.2386 33 50 33Z" stroke="#6816D6" stroke-width="3.5" stroke-linecap="round" stroke-linejoin="round"/>
<path d="M47 17H21" stroke="#6816D6" stroke-width="3.5" stroke-linecap="round" stroke-linejoin="round"/>
<path d="M53 43V48C53 50.7614 50.7614 53 48 53H22C19.2386 53 17 50.7614 17 48V28C17 25.2386 19.2386 23 22 23H48C50.7614 23 53 25.2386 53 28V33" stroke="#6816D6" stroke-width="3.5" stroke-linecap="round" stroke-linejoin="round"/>
</svg>
