<svg width="364" height="54" viewBox="0 0 364 54" fill="none" xmlns="http://www.w3.org/2000/svg">
<path d="M27.2266 0.00228465C31.4941 0.00228465 35.5566 0.982399 39.1995 2.73473C39.7717 2.99289 40.3462 3.30132 40.9161 3.61203L38.4176 5.82814L34.672 1.96251L28.2159 7.6353L24.4157 3.55948L12.5453 14.1328L20.1458 22.4375L17.1777 25.0146L24.6779 33.3193L21.7097 35.8964L32.4334 47.7081L38.7823 41.9302L44.3015 48.1216C43.2072 48.9463 42.0104 49.7734 40.7109 50.4953C36.6071 52.7973 31.9819 54.0041 27.279 54C12.233 54 0.000167897 41.8799 0.000167897 26.9771C-0.0522651 12.1726 12.1829 0 27.2266 0M22.2272 25.3231L28.7357 19.5475L34.5672 25.9925L28.0586 31.7703L22.2272 25.3231ZM26.8618 36.463L33.3179 30.6372L39.1995 37.0822L32.691 42.86L26.8618 36.463ZM17.5994 14.343L24.1057 8.56515L29.9348 15.0124L23.4286 20.788L17.5994 14.343ZM29.5176 11.2473L34.3597 6.91564L38.7345 11.7111L33.8924 16.0954L29.5176 11.2473ZM38.1622 31.1032L43.002 26.7715L47.3745 31.6173L42.5324 35.9535L38.1622 31.1032ZM42.4298 40.8518L47.2719 36.5178L51.6421 41.3156L46.8023 45.6976L42.4298 40.8518ZM44.4086 18.5696L47.6344 15.6818L50.5501 18.8803L47.3221 21.7681L44.4086 18.5696ZM40.2436 9.02894L43.4717 6.09088L46.3897 9.33965L43.1571 12.2274L40.2436 9.02894ZM48.5189 28.1126L51.7469 25.2248L54.7151 28.4233L51.4369 31.3111L48.5189 28.1126ZM33.9972 20.9434L38.8393 16.6117L43.2118 21.4072L38.3697 25.7412L33.9972 20.9434Z" fill="white"/>
<path d="M70.1008 14.1229H79.0641L85.2296 29.1808H85.5405L91.7061 14.1229H100.669V40.7079H93.6231V25.3384H93.4158L87.5093 40.5002H83.2608L77.3543 25.2346H77.1471V40.7079H70.1008V14.1229Z" fill="white"/>
<path d="M102.994 14.1229H111.025L116.206 24.923H116.414L121.595 14.1229H129.625L119.885 32.3482V40.7079H112.735V32.3482L102.994 14.1229Z" fill="white"/>
<path d="M153.54 22.4307C153.47 21.5653 153.147 20.8903 152.568 20.4057C151.998 19.921 151.13 19.6787 149.965 19.6787C149.222 19.6787 148.613 19.7696 148.138 19.9513C147.672 20.1244 147.326 20.3624 147.102 20.6653C146.877 20.9682 146.761 21.3143 146.752 21.7038C146.735 22.024 146.791 22.3139 146.921 22.5735C147.059 22.8244 147.275 23.0538 147.568 23.2615C147.862 23.4605 148.238 23.6423 148.695 23.8067C149.153 23.9711 149.697 24.1182 150.327 24.248L152.503 24.7153C153.971 25.0269 155.228 25.438 156.273 25.9485C157.317 26.4591 158.172 27.0606 158.837 27.7529C159.502 28.4366 159.99 29.2068 160.301 30.0635C160.62 30.9202 160.784 31.8549 160.793 32.8674C160.784 34.6155 160.348 36.0953 159.485 37.3069C158.621 38.5184 157.387 39.4401 155.78 40.0718C154.183 40.7036 152.262 41.0194 150.016 41.0194C147.711 41.0194 145.699 40.6776 143.98 39.9939C142.271 39.3103 140.941 38.2588 139.991 36.8396C139.05 35.4117 138.575 33.5857 138.566 31.3616H145.405C145.448 32.1751 145.651 32.8587 146.014 33.4126C146.377 33.9664 146.886 34.3862 147.542 34.6717C148.207 34.9573 148.997 35.1001 149.913 35.1001C150.681 35.1001 151.325 35.0049 151.843 34.8145C152.361 34.6241 152.754 34.3602 153.021 34.0227C153.289 33.6852 153.427 33.3001 153.436 32.8674C153.427 32.4607 153.293 32.1058 153.034 31.803C152.784 31.4914 152.369 31.2145 151.791 30.9722C151.212 30.7212 150.431 30.4875 149.446 30.2712L146.804 29.7C144.455 29.1894 142.603 28.337 141.247 27.1428C139.9 25.9399 139.231 24.3 139.24 22.223C139.231 20.5355 139.68 19.06 140.587 17.7965C141.502 16.5244 142.767 15.5335 144.382 14.8238C146.005 14.1142 147.866 13.7594 149.965 13.7594C152.106 13.7594 153.958 14.1185 155.521 14.8368C157.084 15.5551 158.289 16.5676 159.135 17.8744C159.99 19.1725 160.422 20.6912 160.43 22.4307H153.54Z" fill="white"/>
<path d="M162.807 19.9383V14.1229H185.863V19.9383H177.884V40.7079H170.786V19.9383H162.807Z" fill="white"/>
<path d="M192.116 40.7079H184.345L193.101 14.1229H202.945L211.701 40.7079H203.929L198.126 21.4441H197.919L192.116 40.7079ZM190.666 30.2193H205.276V35.6194H190.666V30.2193Z" fill="white"/>
<path d="M210.182 19.9383V14.1229H233.238V19.9383H225.259V40.7079H218.161V19.9383H210.182Z" fill="white"/>
<path d="M235.949 40.7079V14.1229H255.067V19.9383H243.15V24.5076H254.082V30.3231H243.15V34.8924H255.015V40.7079H235.949Z" fill="white"/>
<path d="M258.639 14.1229H267.602L273.767 29.1808H274.078L280.244 14.1229H289.207V40.7079H282.161V25.3384H281.954L276.047 40.5002H271.799L265.892 25.2346H265.685V40.7079H258.639V14.1229Z" fill="white"/>
<path d="M292.62 40.7079V14.1229H311.739V19.9383H299.822V24.5076H310.754V30.3231H299.822V34.8924H311.687V40.7079H292.62Z" fill="white"/>
<path d="M338.263 14.1229V40.7079H332.253L322.668 26.7404H322.512V40.7079H315.31V14.1229H321.424L330.854 28.0385H331.061V14.1229H338.263Z" fill="white"/>
<path d="M340.944 19.9383V14.1229H364V19.9383H356.021V40.7079H348.923V19.9383H340.944Z" fill="white"/>
</svg>
