<svg width="587" height="436" viewBox="0 0 587 436" fill="none" xmlns="http://www.w3.org/2000/svg">
<path d="M497.65 197.038H530.65L531.15 253.538L509.65 255.538L497.65 255.038V197.038Z" fill="#F0A89C"/>
<path d="M578.151 135.538C573.09 162.386 555.563 185.098 543.853 182.891C532.142 180.683 526.09 162.386 531.151 135.538C536.211 108.69 554.941 82.8307 566.651 85.0379C578.361 87.2451 583.211 108.69 578.151 135.538Z" fill="#37474F"/>
<path d="M570.102 133.134C566.073 154.508 550.425 173.07 542.296 171.538C534.167 170.006 533.283 155.38 537.311 134.006C541.34 112.632 554.887 91.7884 563.016 93.3206C571.145 94.8528 574.131 111.76 570.102 133.134Z" fill="#81CBEF"/>
<path d="M268.65 138.038L308.65 111.038L341.65 120.038L320.65 187.038H263.65L268.65 138.038Z" fill="black"/>
<path d="M101.65 157.538L120.974 209.665L82.3391 235.359L32.1504 201.538L101.65 157.538Z" fill="#F0A89C"/>
<path d="M407.553 90.2107L393.665 100.718L390.14 90.0258L407.553 90.2107Z" fill="#EFA79B"/>
<ellipse cx="356.15" cy="81.0377" rx="42.5" ry="44" fill="#F0A89C"/>
<path d="M303.149 143.534L308.649 90.0337L309.65 73.5348L309.648 56.5345L309.65 50.0352L310.15 47.0352L311.15 44.535L312.652 41.0363L314.652 38.0362L317.652 35.0363L320.65 33.5352L325.152 33.0363L328.152 34.0362L330.152 36.5362L331.151 39.5361L332.147 42.5362L333.648 42.0363L335.651 42.0363L338.151 39.5361L340.151 38.0363L342.652 36.5362L347.652 34.5362L352.652 33.0362L359.152 33.0362L365.152 34.0362L373.15 35.0377L380.651 37.0377L394.651 41.0373L398.15 43.5377L399.15 46.0377L398.65 48.0377L398.15 49.5377L396.65 50.0377L385.65 50.0377L386.65 51.5377L386.65 53.0377L386.65 54.5377L385.65 55.5363L382.65 56.0377L379.65 56.0377L376.65 56.0377L374.15 55.0377L371.65 54.5377L369.15 53.0377L367.15 52.0377L365.15 50.5377L364.15 50.5377L362.651 51.5363L362.651 55.5363L361.651 59.5363L360.151 62.5363L357.151 65.5363L354.151 68.5363L350.648 71.0363L347.151 73.0363L342.651 74.0363L339.651 71.0363L338.151 69.5345L337.148 67.0345L333.648 66.5345L329.648 66.5345L324.148 69.5345L322.147 72.0353L321.646 75.5353L322.147 81.5352L324.647 86.5352L327.647 89.5352L332.147 92.0352L336.647 93.0351L338.649 137.534L359.728 180.144L331.184 213.629L287.649 176.519L303.149 143.534Z" fill="#362817"/>
<path d="M313.431 303.071C316.278 300.889 320.377 301.575 322.359 304.564V304.564C324.659 308.034 322.949 312.74 318.958 313.924L308.036 317.164L301.036 318.164L297.036 319.038L294.036 319.538L289.036 319.538L295.036 317.164L313.431 303.071Z" fill="#F0A89C"/>
<path d="M304.46 299.632C307.454 297.647 311.491 298.465 313.476 301.459V301.459C315.843 305.029 314.173 309.873 310.109 311.226L295.65 316.038L290.65 317.538L284.15 320.538L275.15 320.538L278.15 316.538L282.18 314.404L304.46 299.632Z" fill="#F0A89C"/>
<path d="M289.507 295.913C292.736 293.773 297.088 294.655 299.228 297.883V297.883C301.568 301.412 300.27 306.194 296.467 308.057L279.15 316.538L275.15 320.538L260.65 320.538L267.651 310.404L289.507 295.913Z" fill="#F0A89C"/>
<path d="M202.65 287.038L249.15 301.538L258.15 301.038L267.65 299.538L291.15 295.538L260.65 321.038L230.65 321.038L204.65 321.038L200.15 322.038L195.65 322.038L190.15 320.538L185.461 317.535L202.65 287.038Z" fill="#F0A89C"/>
<path d="M32.481 252.818C18.7473 247.015 11.7884 231.624 16.5031 217.48V217.48C22.2449 200.254 42.3927 192.69 58.0523 201.881L203.15 287.038L185.65 317.538L32.481 252.818Z" fill="#F0A89C"/>
<path d="M101.35 157.208L107.625 153.038L138.442 199.411L120 209.5L101.35 157.208Z" fill="#040202"/>
<path d="M343 309.318L405.965 297.656L406 305.5L396.526 311.212L347.443 325.064L343 309.318Z" fill="black"/>
<path d="M347.15 324.038L406.039 305.038L409.15 326.038L363.65 398.038L358.63 373.842L347.15 324.038Z" fill="#F0A89C"/>
<path d="M514.979 245.273L543.479 239.273V239.273C545.15 240.505 546.221 242.405 546.423 244.471V244.471C546.827 248.608 543.765 252.31 539.621 252.644L516.479 254.51L514.979 253.773L513.979 252.273L513.479 250.773L513.479 248.773L513.979 246.773L514.979 245.273Z" fill="#F2AA9E"/>
<path d="M544.65 186.038V186.038C546.86 186.038 548.65 187.829 548.65 190.038V196.038H544.65H542.15L544.65 186.038Z" fill="#F0A99C"/>
<path d="M509.65 186.538L530.15 185.538H534.65L532.15 197.038L509.65 203.038V186.538Z" fill="#EBA69A"/>
<path d="M483.15 227.065L499.65 192.565L501.15 190.065L503.65 188.565L506.65 187.065L509.65 186.565L530.65 197.538L516.65 201.565L512.65 204.538L512.65 207.538L512.65 211.038L515.65 215.065L514.65 216.565L513.15 218.065L511.65 219.065L509.65 219.565L507.65 232.038L511.15 255.038L490.65 293.538L483.65 308.538L468.167 315.032L433.65 294.538L458.15 260.065L483.15 227.065Z" fill="#F2AB9E"/>
<path d="M437.15 399.538C427.15 418.038 420.085 435.038 399.65 435.038C379.216 435.038 362.65 419.144 362.65 399.538C362.65 379.932 473.811 232.038 502.98 232.038C523.415 232.038 449.65 382.038 437.15 399.538Z" fill="#F0A89C"/>
<path d="M539.65 196.038L549.441 195.494C553.899 195.246 557.65 198.795 557.65 203.26V203.26C557.65 207.555 554.168 211.038 549.872 211.038H544.15H534.65L529.15 213.038L523.15 214.538L519.65 215.038L518.15 214.538L516.65 213.538L515.15 212.538L514.65 211.038L514.15 209.538V207.538L514.65 206.038L516.15 204.538L519.15 203.038L522.65 202.038L539.65 196.038Z" fill="#D9D9D9"/>
<path d="M539.65 196.038L548.535 195.544C553.485 195.269 557.65 199.209 557.65 204.167V204.367C557.65 208.272 554.955 211.66 551.15 212.538V212.538L545.65 211.538L534.65 211.038L529.15 213.038L523.15 214.538L519.65 215.038L518.15 214.538L516.65 213.538L515.15 212.538L514.65 211.038L514.15 209.538V207.538L514.65 206.038L516.15 204.538L519.15 203.038L522.65 202.038L539.65 196.038Z" fill="#F3AB9F"/>
<path d="M537.15 212.038L546.941 211.494C551.399 211.246 555.15 214.795 555.15 219.26V219.26C555.15 223.555 551.668 227.038 547.372 227.038H541.65H532.15L526.65 229.038L520.65 230.538L517.15 231.038L515.65 230.538L514.15 229.538L512.65 228.538L512.15 227.038L511.65 225.538V223.538L512.15 222.038L513.65 220.538L516.65 219.038L520.15 218.038L537.15 212.038Z" fill="#F0A99D"/>
<path d="M535.099 226.938L544.266 226.439C548.278 226.221 551.65 229.415 551.65 233.433V233.433C551.65 237.302 548.514 240.438 544.646 240.438H539.237H530.501L525.443 242.238L519.926 243.588L516.708 244.038L515.329 243.588L513.949 242.688L512.57 241.788L512.11 240.438L511.65 239.088V237.288L512.11 235.938L513.489 234.588L516.248 233.238L519.466 232.338L535.099 226.938Z" fill="#F2AA9E"/>
<path d="M526.856 241.352L530.652 240.426L539.152 240.426L538.924 241.352L526.652 242.926L523.782 243.426L521.283 243.926L517.783 244.723L515.153 244.537L513.784 243.926L512.784 242.926L512.284 241.926L511.784 240.926L511.152 239.037L511.153 237.037L512.152 234.537L514.152 233.037L516.652 232.038L515.152 231.538L512.652 230.038L511.151 228.538L510.651 227.038L510.651 225.537L510.651 221.037L512.651 218.537L514.651 217.538L516.651 217.038L520.151 216.538L520.651 216.538L520.151 216.038L518.151 215.538L515.651 214.538L514.65 213.538L514.15 212.538L513.65 211.038L513.15 209.538L513.151 208.038L514.15 205.038L518.65 201.538L523.65 200.038L532.651 197.038L539.65 195.038L541.15 196.038L540.65 196.038L539.65 196.038L535.151 197.538L528.65 200.038L519.15 203.038L516.15 204.538L515.15 206.038L514.15 207.538L514.151 209.538L515.151 212.038L516.651 213.538L518.651 214.538L521.151 214.538L524.151 214.038L527.151 213.538L534.651 211.038L545.651 211.538L537.151 212.037L529.151 215.037L520.151 218.037L516.651 219.037L513.651 220.537L512.151 222.037L511.651 225.038L512.652 228.538L516.152 230.538L518.152 230.538L520.152 230.538L524.152 229.538L526.152 229.038L528.152 228.538L532.152 227.038L534.652 227.038L526.152 230.538L517.212 233.037L516.152 233.538L514.652 234.038L512.652 235.537L511.784 237.581L511.784 238.586L512.152 239.538L512.284 240.301L512.653 241.037L513.153 242.037L514.653 243.037L515.652 243.537L517.783 243.537L520.152 243.037L522.152 242.538L524.652 241.926L526.856 241.352Z" fill="black"/>
<path d="M512.006 228.375L513.814 230.769L509.656 233.909C508.995 234.409 508.054 234.277 507.555 233.616V233.616C507.055 232.955 507.187 232.015 507.848 231.515L512.006 228.375Z" fill="black"/>
<path d="M332.15 306.038L408.5 225L414.15 297.538L333.15 315.038L332.15 306.038Z" fill="#8E9BDD"/>
<path d="M177.303 223.326L291.505 284.978L288 296L268.5 299.5L248.5 302L203.151 287.038L164.671 264.282L177.303 223.326Z" fill="black"/>
<path d="M344.657 292.538L412.829 277.038L413.537 279.953L344.657 295.538L343.65 294.038L344.657 292.538Z" fill="black"/>
<path d="M338.651 156.538L338.651 137.038L361.151 141.538L372.151 144.038L382.651 147.038L390.15 152.037L395.15 158.037L401.651 165.037L406.651 174.037L409.059 186.537L409.059 199.537L409.059 227.779L339.317 299.446L332.651 306.038L330.151 298.038L325.651 304.038L316.151 302.038L313.151 299.538L310.151 298.038L305.151 297.038L159.151 216.038L172.651 192.038L139.651 210.538L98.651 141.538L171.151 104.038L219.151 78.5378L225.151 78.0378L231.651 78.5378L238.151 79.5378L244.151 82.5378L296.152 120.038L296.152 125.538L298.151 131.538L300.651 138.038L302.652 140.538L304.652 142.038L303.152 152.038L300.652 160.038L297.652 169.038L293.151 178.038L330.651 213.038L338.651 156.538Z" fill="#8E9BDD"/>
<path d="M360.174 233.311L388.595 169.437L391.354 170.617L362.576 235.109L360.772 235.016L360.174 233.311Z" fill="black"/>
<path d="M149.517 205.383C149.143 205.236 148.831 204.965 148.632 204.616L109.201 135.526C108.794 134.813 109.036 133.906 109.743 133.49V133.49C110.464 133.067 111.392 133.314 111.805 134.041L151.454 203.659C151.708 204.105 151.676 204.659 151.372 205.072V205.072C151.023 205.548 150.397 205.729 149.848 205.513L149.517 205.383Z" fill="black"/>
<path d="M113.449 235.991C113.036 236.06 112.612 235.976 112.257 235.756L50.4309 197.388C49.7341 196.955 49.5141 196.043 49.937 195.341V195.341C50.3684 194.624 51.3028 194.399 52.0131 194.841L114.212 233.525C114.666 233.807 114.904 234.335 114.816 234.862V234.862C114.723 235.416 114.288 235.851 113.733 235.943L113.449 235.991Z" fill="#E49D91"/>
<path d="M363.842 394.467C363.87 394.139 363.981 393.823 364.165 393.55L428.64 297.831C429.099 297.148 430.024 296.964 430.71 297.418V297.418C431.406 297.877 431.593 298.816 431.126 299.507L366.043 395.999C365.805 396.352 365.403 396.558 364.977 396.545V396.545C364.266 396.524 363.719 395.91 363.779 395.201L363.842 394.467Z" fill="#E49D91"/>
<path d="M243.945 89.9139C244.767 89.5694 245.717 89.9537 246.002 90.7983C249.783 101.99 246.2 118.558 242.541 129.538C238.885 140.507 235.081 152.395 225.649 158.777C224.91 159.277 223.917 159.016 223.466 158.247V158.247C223.015 157.478 223.277 156.493 224.012 155.988C232.75 149.988 236.07 138.745 239.478 128.517C242.89 118.278 246.479 102.544 243.019 92.0481C242.74 91.2014 243.122 90.2585 243.945 89.9139V89.9139Z" fill="black"/>
<path d="M325.981 303.734L344.243 268.019L346.948 269.317L328.434 305.361L326.75 304.951L325.981 303.734Z" fill="#7786D1"/>
<path d="M159.285 213.713L193.372 170.637L195.758 172.455L161.267 215.922L159.621 215.285L159.285 213.713Z" fill="#7786D1"/>
<path d="M164.948 193.122L180.932 187.984L182.021 190.779L165.848 195.9L165.093 194.375L164.948 193.122Z" fill="#7786D1"/>
<path d="M291.196 294.038H295.014L299.378 295.097L302.105 298.802L302.65 301.449L301.559 303.038L288.469 309.92L284.65 312.038L285.741 310.449L290.65 307.273L297.741 303.038L299.923 301.449V299.861L299.378 298.273L297.741 296.685L295.559 295.626L292.832 295.097L290.105 295.626V294.567L291.196 294.038Z" fill="black"/>
<path d="M304.196 298.038H308.014L312.378 299.097L315.105 302.802L315.65 305.449L314.559 307.038L301.469 313.92L297.65 316.038L289.65 319.538L288.65 320.038L287.65 319.538L287.15 319.038L303.65 311.273L310.741 307.038L312.923 305.449V303.861L312.378 302.273L310.741 300.685L308.559 299.626L305.832 299.097L303.105 299.626V298.567L304.196 298.038Z" fill="black"/>
<path d="M291.196 294.038H295.014L299.378 295.097L302.105 298.802L302.65 301.449L301.559 303.038L288.469 309.92L284.65 312.038L285.741 310.449L290.65 307.273L297.741 303.038L299.923 301.449V299.861L299.378 298.273L297.741 296.685L295.559 295.626L292.832 295.097L290.105 295.626V294.567L291.196 294.038Z" fill="black"/>
<path d="M322.151 81.5379L329.152 90.538L332.65 92.0377L336.652 93.038L338.148 121.039L339.148 156.539L330.648 213.039L317.148 200.039L322.151 81.5379Z" fill="#755125"/>
<path d="M323.15 46.0377L322.15 33.0377H324.15H326.15L328.15 34.0377L329.15 35.0377L330.15 36.5377L333.65 44.5377L336.65 68.0377H327.65L324.65 70.0377L322.15 73.5377L323.15 46.0377Z" fill="#755124"/>
<path d="M392.905 87.2154C391.055 89.2652 386.023 85.3854 380.479 80.3807C373.979 73.3807 373.479 71.8807 372.83 69.0919C376.479 70.3807 376.479 70.8807 384.48 75.8806C390.023 80.8852 394.756 85.1657 392.905 87.2154Z" fill="white"/>
<path d="M393.15 87.0377C391.3 89.0874 387.944 87.1225 384.668 84.1654C377.149 78.0379 377.129 75.6781 378.65 74.5383C380.65 73.0384 379.963 72.9314 380.149 73.0377C387.149 77.0376 395.398 85.3594 393.15 87.0377Z" fill="black"/>
<path d="M378.321 64.2508C378.245 63.9038 378.389 63.5354 378.727 63.4265C380.22 62.946 382.76 63.4823 384.315 63.6746C386.077 63.8924 387.008 64.5148 388.657 65.7603C390.307 67.0058 391.729 68.6702 392.761 70.5627C393.576 72.0567 394.581 73.6451 395.018 75.2126C395.187 75.8218 394.613 76.3092 393.999 76.1592V76.1592C393.593 76.0602 393.309 75.7035 393.211 75.2976C392.886 73.9498 391.898 72.5738 391.195 71.2857C390.371 69.7753 389.236 68.447 387.92 67.4529C386.604 66.4589 385.16 65.8394 383.754 65.6656C382.735 65.5396 381.041 65.1219 379.779 65.1675C379.181 65.1892 378.451 64.8357 378.321 64.2508V64.2508Z" fill="#362817"/>
<path d="M379.298 103.506C379.456 102.692 379.865 102.087 380.212 102.155L389.763 104.007C390.11 104.075 390.263 104.789 390.105 105.603V105.603C389.947 106.416 389.538 107.021 389.191 106.954L379.641 105.101C379.294 105.034 379.14 104.32 379.298 103.506V103.506Z" fill="#362817"/>
<path d="M331.311 71.6319C331.956 71.1116 332.751 71.0259 333.085 71.4407L342.292 82.8555C342.627 83.2703 342.375 84.0284 341.73 84.5488V84.5488C341.084 85.0691 340.29 85.1548 339.956 84.74L330.749 73.3251C330.414 72.9104 330.666 72.1523 331.311 71.6319V71.6319Z" fill="#362817"/>
<path d="M339.465 79.2014C339.989 79.8441 340.204 80.5356 339.945 80.746L332.837 86.5358C332.579 86.7462 331.945 86.3957 331.421 85.753V85.753C330.898 85.1103 330.683 84.4188 330.941 84.2084L338.05 78.4186C338.308 78.2083 338.942 78.5587 339.465 79.2014V79.2014Z" fill="#362817"/>
<path d="M387.092 53.9405C386.051 55.2293 384.946 57.4113 380.65 53.9405C376.354 50.4697 364.609 40.8265 365.65 39.5377C366.692 38.2489 372.15 43.0378 378.15 45.5377C383.15 48.0377 388.133 52.6517 387.092 53.9405Z" fill="#755124"/>
<path d="M515.546 254.881L526.65 254.038L523.651 267.038L513.151 267.038L515.546 254.881Z" fill="#263238"/>
<path d="M535.784 180.038L545.723 182.839L542.589 193.958L542.15 196.038L541.15 196.038L538.15 193.958L539.708 195.038L531.65 197.538L532.65 191.157L535.784 180.038Z" fill="#E3E3E3"/>
<path d="M547.651 129.038L552.837 119.95L555.987 163.972L550.65 168.538L547.651 129.038Z" fill="#E6E4E4"/>
<path d="M557.209 104.099L560.304 96.0378L563.137 135.633L559.86 139.63L557.209 104.099Z" fill="#E6E4E4"/>
</svg>
