<svg width="32" height="32" viewBox="0 0 32 32" fill="none" xmlns="http://www.w3.org/2000/svg">
<path d="M18.1333 26.6667H13.8667" stroke="#68686E" stroke-width="1.5" stroke-linecap="round" stroke-linejoin="round"/>
<path d="M16 6.66669V6.66669C12.3187 6.66669 9.33334 9.65202 9.33334 13.3334V13.3334V13.376V16.672C9.33334 17.104 9.08934 17.4974 8.70401 17.6907L8.03334 18.0254C7.19601 18.4454 6.66667 19.3014 6.66667 20.2374V20.2374C6.66667 21.6027 7.77334 22.7094 9.13867 22.7094H22.8613C24.2267 22.7094 25.3333 21.6027 25.3333 20.2374V20.2374C25.3333 19.3014 24.804 18.4454 23.9667 18.0267L23.296 17.692C22.9107 17.4974 22.6667 17.104 22.6667 16.672V13.376V13.3334V13.3334" stroke="#68686E" stroke-width="1.5" stroke-linecap="round" stroke-linejoin="round"/>
<path d="M17.5187 6.856C17.0293 6.74133 16.5253 6.66667 16 6.66667" stroke="#68686E" stroke-width="1.5" stroke-linecap="round" stroke-linejoin="round"/>
<path d="M22.4773 11.8147C22.592 12.304 22.6667 12.808 22.6667 13.3334" stroke="#68686E" stroke-width="1.5" stroke-linecap="round" stroke-linejoin="round"/>
<path d="M24.1617 5.17157C25.7238 6.73366 25.7238 9.26633 24.1617 10.8284C22.5996 12.3905 20.067 12.3905 18.5049 10.8284C16.9428 9.26633 16.9428 6.73366 18.5049 5.17157C20.067 3.60948 22.5996 3.60948 24.1617 5.17157" stroke="#68686E" stroke-width="1.5" stroke-linecap="round" stroke-linejoin="round"/>
</svg>
