<svg width="463" height="423" viewBox="0 0 463 423" fill="none" xmlns="http://www.w3.org/2000/svg">
<path d="M255 274L276 228L307 205L311.5 196.5L317.5 196L323.5 200.5L329.5 207L337 219L343 231L349.5 242.5L355 259L311.5 259.5L326 324.5L231 327L255 274Z" fill="#8E9BDD"/>
<path d="M185.5 190L153 260.5L81.9999 260.5L79.5248 248.87C74.5671 225.573 86.7306 202.014 108.594 192.565L118 188.5L143 184L159.596 184C165.077 184 170.52 184.901 175.708 186.667L185.5 190Z" fill="#8E9BDD"/>
<path d="M249.904 150.207L251.339 155.537L215.594 170.333L206.512 143.232L211.635 108.965L214.044 106.036L217.988 104.536L227.687 103.502L235.299 104.016L242.407 107.103L249.546 111.754L257.233 120.064L261.317 125.238L264.386 131.459L266.96 137.197L269.5 143.376V145.308L269.064 147.076L264.757 148.531H260.194H260.167L260.141 148.534L250.334 149.58L249.752 149.642L249.904 150.207Z" fill="#FFC9C0" stroke="black"/>
<path d="M196.777 178.416L197.126 178.184L196.958 177.8L179.5 137.895V134.541L179.983 131.645L181.912 127.304L185.738 123.956L189.491 123.018L192.758 123.951L196.102 126.817L218.057 168.732L218.264 169.127L218.679 168.967L257.672 153.969L277.658 146.974L277.665 146.972L288.129 143.484L295.58 141.994L299.549 141.498L306.482 141.003L309.794 141.476L312.045 143.277L312.49 145.5L312.023 147.836L310.597 150.688L306.692 154.105L295.241 162.071L282.78 168.551L269.792 174.545L269.79 174.546L257.792 180.045L258.168 180.971L286.134 170.983L288.598 170.49L290.995 170.011L295.352 170.979L297.753 171.94L299.593 173.32L301.02 176.649L301.49 179L301.026 181.322L299.099 184.694L296.16 187.633L292.691 190.606L289.22 193.085L283.761 196.559L278.317 199.034L272.342 201.026L267.842 202.526L267.5 202.64V203V204V204.5H268H269.5H269.581L269.658 204.474L271.15 203.977L279.641 201.48L279.684 201.467L279.724 201.447L287.724 197.447L287.762 197.428L287.796 197.403L295.296 191.903L295.334 191.875L295.366 191.84L301.676 185.045L303.817 185.473L306.19 186.897L308.103 188.81L309.561 191.241L310.5 193.118V195V197.438L310.023 199.346L309.044 201.795L308.067 203.749L307.111 205.181L305.646 206.646L305.635 206.658L305.624 206.671L302.164 210.625L297.221 214.085L276.353 227.5H185.512L186.494 185.272L196.777 178.416Z" fill="#FFC9C0" stroke="black"/>
<path d="M187 185.5L277.211 225.85L208.662 377.427C197.314 402.52 167.774 413.662 142.682 402.314V402.314C117.493 390.923 106.379 361.213 117.908 336.086L187 185.5Z" fill="#FFC9C0"/>
<path d="M82 260H143H153L143.5 280L117.5 340L98.5 326L88 291.5L85.5 283.5L83.5 275.5L82 268V260Z" fill="#FFC9C0"/>
<rect width="17.5023" height="2.22884" rx="1.11442" transform="matrix(0.805222 0.592974 -0.588675 0.80837 251.259 115.445)" fill="black"/>
<rect width="9.54852" height="2.22904" rx="1.11452" transform="matrix(-0.815155 0.579243 -0.57494 -0.818196 265.261 126.793)" fill="black"/>
<rect width="12.7684" height="2.23317" rx="1.11659" transform="matrix(-0.999913 0.0131624 -0.0130161 -0.999915 244.825 119.837)" fill="black"/>
<path d="M230 327L325.5 324.5L311 259H355L361.5 274L366.5 289.5L371 307L373.5 327L374.5 337.5L373.5 349L371 360.5L366.5 371.5L357.5 383.5L351.5 389L343 393H201H197.5L205.5 383.5L230 327Z" fill="#FFC9C0"/>
<path d="M98.1464 369.146L98.1155 369.177L98.0904 369.213L94.5904 374.213L94.5526 374.267L94.5301 374.329L92.5301 379.829L92.5299 379.829L92.5257 379.842L90.5257 385.842L90.5255 385.842L90.5221 385.853L88.5221 392.353L88.3256 392.992L88.9937 393L128.494 393.5L129.599 393.514L128.88 392.675L122.916 385.717L118.453 377.286L115.973 371.335L114.99 367.895L113.995 360.929L113.917 360.38L113.379 360.515L107.379 362.015L107.325 362.028L107.276 362.053L103.276 364.053L103.204 364.089L103.146 364.146L100.646 366.646L98.1464 369.146Z" fill="#FFC9C0" stroke="black"/>
<path d="M88.3143 339.536L88.295 339.543L88.2764 339.553L84.2764 341.553L84.2038 341.589L84.1464 341.646L81.6464 344.146L81.6049 344.188L81.5742 344.238L77.5742 350.738L77.5646 350.754L77.5561 350.77L70.5561 364.27L70.5405 364.3L70.5291 364.332L68.0291 371.332L68.0237 371.347L68.0192 371.363L66.0206 378.358L64.0221 384.853L64.0147 384.877L64.0097 384.902L62.5097 392.402L62.3901 393H63H88.5H88.8755L88.9802 392.639L93.4675 377.183L96.927 370.264L99.859 366.355L106.219 361.463L112.612 359.987L112.959 359.907L112.997 359.553L114.491 345.609L120.973 326.662L121.2 326H120.5H100.5H100.491L100.481 326L86.9815 326.5L86.8733 326.504L86.7764 326.553L82.7764 328.553L82.7413 328.57L82.7094 328.593L79.2094 331.093L79.1529 331.133L79.1096 331.188L77.1096 333.688L77.096 333.705L77.084 333.723L75.084 336.723L75.0799 336.729L75.076 336.735L72.576 340.735L72.5574 340.765L72.5431 340.797L70.5431 345.297L68.5431 349.797L68.5302 349.826L68.5211 349.856L67.0211 354.856L67.012 354.887L67.0068 354.918L66.5068 357.918L66.5 357.959V358V361V361.096L66.5358 361.186L67.5358 363.686L67.5739 363.781L67.6464 363.854L68.6464 364.854L69.1093 365.316L69.4341 364.748L71.4341 361.248L71.4483 361.223L71.4596 361.197L72.9569 357.703L72.9583 357.7L74.9426 353.235L77.4127 349.283L81.8598 343.354L86.2332 339.952L90.3947 338.704L88.3143 339.536ZM96.4093 338.5L97.4582 338.893L93.5498 338.502L93.5249 338.5H94H96.4093ZM106.799 343.209L109.158 344.388L109.252 344.529L106.799 343.209Z" fill="#FFC9C0" stroke="black"/>
<path d="M135.5 159.5L162 118.5L169 110.5L176.5 103.5L186.5 99.5L196 97.5L204 96.5L212 97.5L217 98.5L224.5 102L226 104.5L214.5 106L207 146.5L196 125.5L190.5 122.5L187 123L183.5 125L181.5 127.5L180.5 130L179.5 137.5L197 179L188 184L185 190L168.5 185.5L141.5 185L114.5 190L99 198L87 210L82.5 219L79 232L80 246L82.5 260.5L99 322.5V325.5L88 326L82 328.5L77.5 332.5L71 343L68 350.5L66.5 356L66 360.5L68 364.5L69 365.5L70.5 365L68 370L66.5 376L62 393.5L33.5 393H28.5L24 392L20.5 390L18 388L14 382.5L10.5 377L7 371.5L4 365.5L1.5 356L0.5 347.5V338L2.5 329L5 320.5L9 312.5L15 304.5L23.5 298L35.5 290.5L47.5 282L52.5 278L54.5 272.5L55 264L53.5 256L48 241L45 225V220L46 215.5L47 211L48.5 207.5L51.5 200.5L55.5 195L60 188.5L66 183L72.5 178L80 174.5L95 171.5L107 170L117.5 168L127 164L135.5 159.5Z" fill="black"/>
<path d="M430.026 125C430.068 134.359 422.516 141.98 413.157 142.022L409.022 142.041C399.663 142.083 392.042 134.53 392 125.171V125.171L430.026 125V125Z" fill="#FFAE32"/>
<path d="M375.5 54.5L376.5 49L378.5 45L380.5 41L384 37L387.5 33L391.5 30L395.5 28L400 26.5V23.5V21.5L401 19.5L403 17.5L406 15.5L410 14.5L414 15L417 16.5L418 17.5L419 18.5L420 20L420.5 21.5V26.5L424 27L426.5 28.5L429.5 30L431.5 31.5L435.5 35L437.5 37L439.5 39.5L441.5 42L443 45L444.5 48.5L445 52.5L445.5 65L446.5 75.5L449 83L455 93.5L462 103L462.5 105L463 109.5V112L462.5 114.5L461.5 117L459.5 119H363L360.5 118L359 116L358 113.5V111L359 105L361 101L363.5 97L366.5 93.5L370.5 88L374 77.5L375 72L375.5 63.5V54.5Z" fill="#FFAE32"/>
<rect x="398" y="23" width="25" height="5" rx="2.5" fill="#E99E2B"/>
<path d="M341.78 54.0035C342.223 41.3175 347.475 29.2751 356.47 20.3186C365.465 11.3621 377.53 6.16214 390.218 5.77336L390.414 12.1716C379.351 12.5106 368.83 17.0448 360.987 24.8547C353.143 32.6645 348.564 43.1652 348.177 54.2271L341.78 54.0035Z" fill="#A4A3A7"/>
<rect x="63" y="392" width="65" height="2" fill="#FFC9C0"/>
<rect x="164.219" y="232.303" width="2" height="94.6613" rx="1" transform="rotate(25.143 164.219 232.303)" fill="#FFB6AA"/>
<rect x="369.942" y="324" width="2" height="57.9432" rx="1" transform="rotate(89.6366 369.942 324)" fill="#FFB6AA"/>
<rect x="241.515" y="302.012" width="2" height="92.0601" rx="1" transform="rotate(24.7309 241.515 302.012)" fill="#FFB6AA"/>
<path d="M311 259H342H355L358 266.5L313 272L311 259Z" fill="black"/>
<path d="M106 261.5L149.382 264L151.5 260H149H106V261.5Z" fill="black"/>
<path d="M266.999 203.092L278.999 199L289.5 193.5L299 185.5L299.499 184.5L300.5 184L301.5 184.5L295.5 192L288.5 197L280.499 201L267.887 204.884L266.999 203.092Z" fill="black"/>
<path d="M257.834 180.262L284.572 167.604L285 168.507L284 171.5L258.262 181.166L257.834 180.262Z" fill="black"/>
</svg>
