<svg width="24" height="24" viewBox="0 0 24 24" fill="none" xmlns="http://www.w3.org/2000/svg">
<path fill-rule="evenodd" clip-rule="evenodd" d="M4.50597 10.6982V10.6982C3.72951 9.82268 3.60044 8.54849 4.18554 7.535L4.22593 7.465C4.81105 6.45153 5.97903 5.92618 7.12552 6.16077H7.12563C7.5956 6.25694 8.08453 6.1776 8.49997 5.93774V5.93774C8.9154 5.69789 9.22857 5.31414 9.38027 4.85906V4.85906C9.75034 3.74885 10.7893 3 11.9596 3H12.0403C13.2106 3 14.2496 3.74885 14.6197 4.85906V4.85906C14.7714 5.31414 15.0845 5.69788 15.5 5.93773V5.93773C15.9154 6.1776 16.4043 6.25695 16.8743 6.16078H16.8744C18.0209 5.92621 19.1889 6.45156 19.774 7.465L19.8144 7.535C20.3995 8.54849 20.2704 9.82271 19.494 10.6983V10.6983C19.1757 11.0572 19 11.5203 19 12V12C19 12.4797 19.1757 12.9428 19.494 13.3018V13.3018C20.2705 14.1773 20.3995 15.4516 19.8144 16.465L19.774 16.5351C19.1889 17.5485 18.0209 18.0739 16.8744 17.8393L16.8741 17.8392C16.4042 17.7431 15.9154 17.8224 15.5 18.0622V18.0622C15.0845 18.302 14.7714 18.6858 14.6197 19.1409V19.1409C14.2496 20.2511 13.2106 21 12.0402 21H11.9597C10.7894 21 9.75036 20.2511 9.38026 19.1408V19.1408C9.22857 18.6858 8.91541 18.302 8.49997 18.0622V18.0622C8.08458 17.8224 7.59573 17.743 7.12582 17.8392L7.12552 17.8392C5.97904 18.0738 4.81108 17.5485 4.22597 16.535L4.18557 16.465C3.60043 15.4515 3.72949 14.1773 4.50595 13.3017V13.3017C4.82422 12.9428 4.99996 12.4797 4.99997 12V12C4.99998 11.5203 4.82424 11.0572 4.50597 10.6982Z" stroke="#AE7EED" stroke-width="1.5" stroke-linecap="round" stroke-linejoin="round"/>
<circle cx="12" cy="12" r="3" stroke="#AE7EED" stroke-width="1.5" stroke-linecap="round" stroke-linejoin="round"/>
</svg>
